<?xml version="1.0" encoding="utf-8"?>
<!-- Generator: Adobe Illustrator 19.2.1, SVG Export Plug-In . SVG Version: 6.00 Build 0)  -->
<svg version="1.1" id="qualite-vienne" xmlns="http://www.w3.org/2000/svg" xmlns:xlink="http://www.w3.org/1999/xlink" x="0px"
	 y="0px" viewBox="0 0 600 600" style="enable-background:new 0 0 600 600;" xml:space="preserve">
<style type="text/css">
	.st0{fill:#FFFFFF;}
	.st1{fill:#00ADCA;}
	.st2{fill:#E35833;}
</style>
<path id="cercle-blanc" class="st0" d="M0,297.6C0,133.3,133.3,0,297.6,0C462,0,595.3,133.3,595.3,297.6
	c0,164.4-133.3,297.6-297.6,297.6C133.3,595.3,0,462,0,297.6"/>
<path id="cercle-bleu" class="st1" d="M76,297.6C76,175.3,175.3,76,297.6,76c122.4,0,221.6,99.2,221.6,221.6S420,519.2,297.6,519.2
	C175.3,519.2,76,420,76,297.6"/>
<path id="testicules" class="st2" d="M355.4,127c-13.9-31.4-55.8-28.9-64.1-26.8c-6.7,1.7-12.5,6.7-16.8,15.4
	c-10.6,21.1-30.5,67.3-42.2,98.3v-0.2c0,0.1-2.6,5.5-2.6,5.6c-4.3-19.3-33.9-100.9-48.5-130c-4.4-8.7-10.2-13.6-16.8-15.4
	c-8.3-2.2-50.2-4.6-64.1,26.8c-9,20.4,0.4,58.8,10.5,78.1c14.8,28.3,61.4,71.2,75.9,88.9s19.4,34,16,48.9
	c-3.3,14.9-12.7,40.6,7,26.9c0,0,7.1-7.1,20.6-20.2v0.2c0.2-0.3,0.5-0.6,0.8-1c0.2-0.2,0.3-0.3,0.5-0.4V322
	c16.9-19.5,83.4-78.9,104-113.8C346.7,189.5,364.5,147.4,355.4,127"/>
<g id="futuroscope">
	<path id="e_5_" class="st0" d="M401.6,470.7c0,3.2,1.7,7.1,6,7.1c3.2,0,5-1.9,5.7-4.6h2.2c-0.9,4.1-3.3,6.5-7.9,6.5
		c-5.8,0-8.2-4.4-8.2-9.6c0-4.8,2.4-9.6,8.2-9.6c5.8,0,8.1,5.1,8,10.2H401.6z M413.3,468.8c-0.1-3.3-2.2-6.5-5.8-6.5
		c-3.6,0-5.6,3.2-6,6.5H413.3z"/>
	<path id="p_1_" class="st0" d="M380.2,461.1h2v3.4h0.1c1-2.5,3.5-4,6.5-4c5.5,0,8.1,4.5,8.1,9.6s-2.6,9.6-8.1,9.6
		c-2.7,0-5.3-1.4-6.3-4h-0.1v10.1h-2.2V461.1z M388.8,462.4c-4.9,0-6.3,3.6-6.3,7.7c0,3.8,1.6,7.7,6.3,7.7c4.2,0,5.9-4,5.9-7.7
		S393,462.4,388.8,462.4"/>
	<path id="o_1_" class="st0" d="M376.9,470.1c0,5.2-3,9.6-8.6,9.6c-5.5,0-8.6-4.4-8.6-9.6s3-9.6,8.6-9.6S376.9,464.9,376.9,470.1
		 M362,470.1c0,3.9,2.1,7.7,6.3,7.7c4.2,0,6.3-3.9,6.3-7.7s-2.1-7.7-6.3-7.7S362,466.3,362,470.1"/>
	<path id="c" class="st0" d="M355.3,466.7c-0.6-2.7-2.2-4.3-5.1-4.3c-4.2,0-6.3,3.9-6.3,7.7s2.1,7.7,6.3,7.7c2.7,0,5-2.1,5.3-5.2
		h2.2c-0.6,4.3-3.4,7-7.5,7c-5.5,0-8.6-4.4-8.6-9.6s3-9.6,8.6-9.6c3.9,0,6.8,2.1,7.3,6.2L355.3,466.7L355.3,466.7z"/>
	<path id="s_1_" class="st0" d="M336.5,466.4c-0.1-2.7-2.2-4-4.7-4c-2,0-4.3,0.8-4.3,3.1c0,2,2.2,2.7,3.8,3.1l2.9,0.7
		c2.5,0.4,5.2,1.9,5.2,5c0,3.9-3.9,5.4-7.3,5.4c-4.2,0-7.1-2-7.4-6.4h2.2c0.2,3,2.4,4.5,5.3,4.5c2.1,0,4.9-0.9,4.9-3.4
		c0-2.1-2-2.8-4-3.3l-2.8-0.6c-2.9-0.8-5-1.8-5-4.8c0-3.7,3.6-5.1,6.8-5.1c3.6,0,6.5,1.9,6.6,5.8L336.5,466.4L336.5,466.4z"/>
	<path id="o" class="st0" d="M322.3,470.1c0,5.2-3,9.6-8.6,9.6s-8.6-4.4-8.6-9.6s3-9.6,8.6-9.6S322.3,464.9,322.3,470.1
		 M307.4,470.1c0,3.9,2.1,7.7,6.3,7.7s6.3-3.9,6.3-7.7s-2.1-7.7-6.3-7.7S307.4,466.3,307.4,470.1"/>
	<path id="r" class="st0" d="M295.7,461.1h2v4.2h0.1c1.1-2.9,3.6-4.6,6.8-4.5v2.2c-4-0.2-6.7,2.7-6.7,6.5v9.6h-2.2L295.7,461.1
		L295.7,461.1z"/>
	<path id="u_3_" class="st0" d="M291.5,479.2h-2v-3.3h-0.1c-1.2,2.4-3.5,3.8-6.2,3.8c-4.6,0-6.3-2.7-6.3-6.9v-11.7h2.2v11.8
		c0.1,3.3,1.3,5,4.8,5c3.8,0,5.4-3.6,5.4-7.3v-9.5h2.2V479.2z"/>
	<path id="t_1_" class="st0" d="M270,461.1h3.7v1.9H270v12.2c0,1.4,0.2,2.3,1.8,2.4c0.6,0,1.3,0,1.9-0.1v1.9c-0.7,0-1.3,0.1-2,0.1
		c-2.9,0-4-1-3.9-4.1V463h-3.2v-1.9h3.2v-5.4h2.2V461.1z"/>
	<path id="u_2_" class="st0" d="M262.3,479.2h-2v-3.3h-0.1c-1.2,2.4-3.5,3.8-6.2,3.8c-4.6,0-6.3-2.7-6.3-6.9v-11.7h2.2v11.8
		c0.1,3.3,1.3,5,4.8,5c3.8,0,5.4-3.6,5.4-7.3v-9.5h2.2V479.2z"/>
	<polygon id="f" class="st0" points="229.3,454.1 245.2,454.1 245.2,456.2 231.7,456.2 231.7,465.2 243.6,465.2 243.6,467.2 
		231.7,467.2 231.7,479.2 229.3,479.2 	"/>
	<path id="u_1_" class="st0" d="M214.9,479.2h-2v-3.3h-0.1c-1.2,2.4-3.5,3.8-6.2,3.8c-4.6,0-6.3-2.7-6.3-6.9v-11.7h2.2v11.8
		c0.1,3.3,1.3,5,4.8,5c3.8,0,5.4-3.6,5.4-7.3v-9.5h2.2L214.9,479.2L214.9,479.2z"/>
	<path id="d" class="st0" d="M196.1,479.2h-2v-3.4H194c-0.9,2.4-3.8,4-6.5,4c-5.5,0-8.1-4.5-8.1-9.6s2.6-9.6,8.1-9.6
		c2.7,0,5.3,1.4,6.3,4h0.1v-10.4h2.2V479.2z M187.5,477.8c4.7,0,6.3-4,6.3-7.7c0-3.8-1.6-7.7-6.3-7.7c-4.2,0-5.9,4-5.9,7.7
		C181.6,473.9,183.3,477.8,187.5,477.8"/>
	<path id="s" class="st0" d="M277.6,436.5c-0.1-2.7-2.2-4-4.7-4c-2,0-4.3,0.8-4.3,3.1c0,2,2.2,2.7,3.8,3.1l2.9,0.7
		c2.5,0.4,5.2,1.9,5.2,5c0,3.9-3.9,5.4-7.3,5.4c-4.2,0-7.1-2-7.4-6.4h2.2c0.2,3,2.4,4.5,5.3,4.5c2.1,0,4.9-0.9,4.9-3.4
		c0-2.1-2-2.8-4-3.3l-2.8-0.6c-2.9-0.8-5-1.8-5-4.8c0-3.7,3.6-5.1,6.8-5.1c3.6,0,6.5,1.9,6.6,5.8L277.6,436.5L277.6,436.5z"/>
	<path id="y" class="st0" d="M248.5,431.2h2.3l6,15.4l5.6-15.4h2.2l-7.9,20.9c-1.3,3-2,3.9-4.8,3.9c-0.9,0-1.3,0-1.7-0.2V454
		c0.5,0.1,1,0.2,1.5,0.2c2,0,2.4-1.2,3.2-2.8l0.8-2.1L248.5,431.2z"/>
	<path id="a_2_" class="st0" d="M232.1,436.8c0.2-4.2,3.2-6.1,7.3-6.1c3.2,0,6.7,1,6.7,5.8v9.6c0,0.8,0.4,1.3,1.3,1.3
		c0.2,0,0.5-0.1,0.7-0.1v1.9c-0.5,0.1-0.8,0.1-1.4,0.1c-2.2,0-2.6-1.3-2.6-3.2H244c-1.5,2.3-3.1,3.7-6.6,3.7c-3.3,0-6.1-1.6-6.1-5.3
		c0-5.1,4.9-5.3,9.7-5.8c1.8-0.2,2.8-0.5,2.8-2.5c0-3-2.1-3.7-4.7-3.7c-2.7,0-4.8,1.3-4.8,4.2h-2.2V436.8z M243.9,439.4L243.9,439.4
		c-0.4,0.5-1.3,0.7-1.9,0.8c-3.8,0.7-8.4,0.6-8.4,4.2c0,2.2,2,3.6,4,3.6c3.4,0,6.3-2.1,6.3-5.7L243.9,439.4L243.9,439.4z"/>
	<path id="p" class="st0" d="M210.6,424.3h11.1c4.5,0,7.4,2.6,7.4,7.2s-2.9,7.2-7.4,7.2H213v10.7h-2.4V424.3z M213,436.6h8.2
		c3.3,0,5.6-1.7,5.6-5.1s-2.3-5.1-5.6-5.1H213V436.6z"/>
	<path id="e_4_" class="st0" d="M183.6,440.9c0,3.2,1.7,7.1,6,7.1c3.2,0,5-1.9,5.7-4.6h2.2c-0.9,4.1-3.3,6.5-7.9,6.5
		c-5.8,0-8.2-4.4-8.2-9.6c0-4.8,2.4-9.6,8.2-9.6s8.1,5.1,8,10.2H183.6z M195.3,439c-0.1-3.3-2.2-6.5-5.8-6.5s-5.6,3.2-6,6.5H195.3z"
		/>
	<rect id="l_3_" x="175.8" y="424.3" class="st0" width="2.2" height="25"/>
</g>
<g id="vienne">
	<path id="e_3_" class="st0" d="M407.9,393.7c0,2.2,0.3,4.4,1,6.5c0.6,2.1,1.6,3.9,2.8,5.5c1.3,1.6,2.9,2.8,4.8,3.7
		c1.9,0.9,4.2,1.4,6.9,1.4c3.7,0,6.7-0.8,9-2.4s4-4,5.1-7.2h12.1c-0.7,3.1-1.8,5.9-3.5,8.4c-1.6,2.5-3.6,4.5-5.9,6.2
		s-4.9,2.9-7.8,3.8s-5.9,1.3-9,1.3c-4.5,0-8.6-0.7-12.1-2.2s-6.5-3.6-8.9-6.3c-2.4-2.7-4.2-5.9-5.5-9.6c-1.2-3.7-1.8-7.8-1.8-12.3
		c0-4.1,0.7-8,2-11.7s3.2-6.9,5.6-9.7c2.4-2.8,5.3-5,8.8-6.6c3.4-1.6,7.3-2.5,11.6-2.5c4.5,0,8.6,0.9,12.2,2.8s6.6,4.4,9,7.5
		s4.1,6.7,5.2,10.8c1.1,4.1,1.4,8.3,0.8,12.6L407.9,393.7L407.9,393.7z M437.6,385.3c-0.2-2-0.6-4-1.3-5.8c-0.7-1.9-1.7-3.5-2.9-4.9
		c-1.2-1.4-2.7-2.5-4.5-3.3c-1.8-0.9-3.7-1.3-5.9-1.3c-2.2,0-4.3,0.4-6.1,1.2c-1.8,0.8-3.4,1.9-4.7,3.2c-1.3,1.4-2.3,3-3.1,4.9
		c-0.8,1.9-1.2,3.9-1.3,6L437.6,385.3L437.6,385.3z"/>
	<path id="n_1_" class="st0" d="M336.6,361.5h12.1v8.5l0.2,0.2c1.9-3.2,4.5-5.7,7.6-7.5s6.6-2.7,10.4-2.7c6.3,0,11.3,1.6,15,4.9
		s5.5,8.2,5.5,14.7v39.7h-12.7V383c-0.2-4.5-1.1-7.8-2.9-9.9c-1.8-2-4.6-3.1-8.4-3.1c-2.2,0-4.1,0.4-5.8,1.2
		c-1.7,0.8-3.2,1.9-4.4,3.2c-1.2,1.4-2.1,3-2.8,4.9c-0.7,1.9-1,3.8-1,5.9v34.1h-12.7v-57.8H336.6z"/>
	<path id="n" class="st0" d="M275.3,361.5h12.1v8.5l0.2,0.2c1.9-3.2,4.5-5.7,7.6-7.5s6.6-2.7,10.4-2.7c6.3,0,11.3,1.6,15,4.9
		c3.6,3.3,5.5,8.2,5.5,14.7v39.7h-12.7V383c-0.2-4.5-1.1-7.8-2.9-9.9c-1.8-2-4.6-3.1-8.4-3.1c-2.2,0-4.1,0.4-5.8,1.2
		c-1.7,0.8-3.2,1.9-4.4,3.2c-1.2,1.4-2.1,3-2.8,4.9c-0.7,1.9-1,3.8-1,5.9v34.1h-12.7v-57.8H275.3z"/>
	<path id="e_2_" class="st0" d="M225.9,393.7c0,2.2,0.3,4.4,0.9,6.5c0.6,2.1,1.6,3.9,2.8,5.5c1.3,1.6,2.9,2.8,4.8,3.7
		c1.9,0.9,4.2,1.4,6.9,1.4c3.7,0,6.7-0.8,9-2.4s4-4,5.1-7.2h12.1c-0.7,3.1-1.8,5.9-3.5,8.4c-1.6,2.5-3.6,4.5-5.9,6.2
		c-2.3,1.7-4.9,2.9-7.8,3.8c-2.9,0.9-5.9,1.3-9,1.3c-4.5,0-8.6-0.7-12.1-2.2s-6.5-3.6-8.9-6.3c-2.4-2.7-4.2-5.9-5.5-9.6
		c-1.2-3.7-1.8-7.8-1.8-12.3c0-4.1,0.7-8,2-11.7s3.2-6.9,5.6-9.7c2.4-2.8,5.3-5,8.8-6.6c3.4-1.6,7.3-2.5,11.6-2.5
		c4.5,0,8.6,0.9,12.2,2.8c3.6,1.9,6.6,4.4,9,7.5s4.1,6.7,5.2,10.8c1.1,4.1,1.4,8.3,0.8,12.6L225.9,393.7L225.9,393.7z M255.6,385.3
		c-0.2-2-0.6-4-1.3-5.8c-0.7-1.9-1.7-3.5-2.9-4.9s-2.7-2.5-4.5-3.3c-1.8-0.9-3.7-1.3-5.9-1.3s-4.3,0.4-6.1,1.2
		c-1.8,0.8-3.4,1.9-4.7,3.2c-1.3,1.4-2.3,3-3.1,4.9s-1.2,3.9-1.3,6L255.6,385.3L255.6,385.3z"/>
	<rect id="i_1_" x="192.1" y="361.5" class="st0" width="12.7" height="57.8"/>
	<polygon id="v" class="st0" points="130.9,361.5 144.8,361.5 159.4,405.9 159.6,405.9 173.7,361.5 186.9,361.5 166.2,419.3 
		151.9,419.3 	"/>
</g>
<g id="qualite">
	<path id="e_1_" class="st1" d="M463.6,119.1c-7.3,6.2-15.7,6-23.2,0.1c-10.6-8.4-9.8-19.7-2.1-30.1c7.9-10,20.2-12.1,29.3-5
		c11.8,9.3,6.7,23.2,0,30.9l-24.9-19.7c-4.8,5.6-5.6,13.4,1.7,19.1c4.5,3.6,9.4,3.9,13.8,0.3L463.6,119.1z M465.6,105.7
		c3.9-5.4,3.2-12.7-2.2-17c-5.7-4.5-12.5-2.9-16.9,1.9L465.6,105.7z M478.8,71.9l7,5.5L470.1,80l-4.1-3.3L478.8,71.9z"/>
	<path id="t" class="st1" d="M429.4,59.8l7.4,4l-2.9,5.4l-7.4-4l-12.6,23.1c-1.5,2.8-1,3.7,2.8,5.8l2.8,1.5l-2.9,5.4l-4.7-2.5
		c-6.3-3.4-8.2-6.1-4.4-13l12.9-23.7l-6.3-3.4L417,53l6.3,3.4l6.1-11.2l6.1,3.3L429.4,59.8z"/>
	<path id="i" class="st1" d="M395.8,44.1l6.5,2.6L386.4,86l-6.5-2.6L395.8,44.1z M405.1,39.6l-6.5-2.6l3.2-7.9l6.5,2.6L405.1,39.6z"
		/>
	
		<rect id="l_2_" x="340.1" y="45.5" transform="matrix(0.2784 -0.9605 0.9605 0.2784 219.5071 390.1494)" class="st1" width="58.5" height="7"/>
	<path id="a_1_" class="st1" d="M347.2,72.4c-1.3,0.6-2.9,0.8-5.1,0.5c-3.6-0.5-5.6-2.7-5-7.3c-4.4,4-9.8,5.4-15.6,4.6
		c-7.6-1-13.5-5.2-12.4-13.6c1.2-9.5,8.6-10.6,15.9-11.1c7.8-0.5,14.3,0.8,14.9-4.4c0.8-6-4.1-7.6-8.5-8.2
		c-5.9-0.7-10.4,0.5-11.5,6.6l-6.9-0.9c1.7-10.4,10.3-13,19.6-11.8c7.6,1,15.6,3.7,14.3,13.6L344.1,62c-0.4,3.3-0.6,4.7,1.6,5
		c0.6,0.1,1.2,0.1,2.2-0.1L347.2,72.4z M338.7,49.4c-2.9,1.6-8.2,1-12.9,1.2c-4.7,0.2-8.8,1.4-9.4,6.5c-0.6,4.6,3.1,6.7,7.3,7.2
		c9.1,1.2,13.6-4.1,14.1-7.9L338.7,49.4z"/>
	<path id="u" class="st1" d="M295.6,67.4l-6.5,0.6l-0.6-6.7h-0.2c-2.5,5.5-7,8.3-13.1,8.9c-11.1,1-15.1-5.1-15.9-14.2L257,28.2
		l6.9-0.6l2.5,28.6c0.4,5.1,4,8.2,9.3,7.8c8.4-0.7,12-6.7,11.4-14.3l-2-23.9l6.9-0.6L295.6,67.4z"/>
	<path id="q" class="st1" d="M245.7,78.1l-10.8-3.9c-2.9,3.4-6.9,6.1-12.1,7.9c-17.6,6.1-31.3-4.7-36.6-19.8
		c-5.2-15-1.2-32.1,16.4-38.2c17.6-6,31.4,4.9,36.6,19.9c2.9,8.4,3,17.5-0.7,24.9l9.3,3.3L245.7,78.1z M222.3,63.2l9.4,3.3
		c2.9-5.8,2.5-13.3,0.2-19.9c-3.9-11.2-13.6-20.8-27-16.1c-13.5,4.7-15.1,18.3-11.2,29.4c3.9,11.2,13.6,20.8,27,16.1
		c2.9-1,5.2-2.4,7.1-4.2L220,69L222.3,63.2z"/>
</g>
<g id="label">
	
		<rect id="l_1_" x="68.3" y="163" transform="matrix(0.4361 -0.8999 0.8999 0.4361 -129.0563 168.0268)" class="st1" width="2.5" height="47.9"/>
	<path id="e" class="st1" d="M60.7,228.5c7.6,2.8,16,1.2,18.8-6.9c2.1-6.1,0-11.8-5.6-15l0.8-2.4c7.2,3.9,9.6,10.5,6.9,18.2
		c-3.3,9.5-12.5,11.9-21.5,8.6c-9-3-16-10.7-12.6-20.5c3.6-10.2,13.2-11.9,22.4-8.2L60.7,228.5z M67,203.8
		c-6.9-2.3-14.7-0.2-17.3,7.3c-2.5,7.2,2.7,13.8,9,16.6L67,203.8z"/>
	<path id="b" class="st1" d="M21.5,266.1l0.4-2.5l20.4,3.4v-0.1c-5-2.8-6.8-8.8-5.8-14.2c1.7-10,10-13.5,19.5-11.9
		c16.2,2.7,16.9,13.2,16.1,17.9c-1.5,8.9-8.7,11.3-10.6,11.5v0.1l7.6,1.3l-0.4,2.5L21.5,266.1z M55.6,243.3
		c-7.5-1.3-15.5,1.6-16.9,9.8c-1.5,8.9,4.1,14,12.6,15.5c8.3,1.4,17-1,18.6-10.2C71.5,249.3,63.5,244.6,55.6,243.3"/>
	<path id="a" class="st1" d="M61.6,285.9c2,0,4.2,0,4.2-2.3c0-0.5-0.1-1.1-0.2-1.9h2.1c0.1,0.7,0.3,1.4,0.3,2.1c0,4-2.2,4.6-5,4.6
		h-1.8v0.1c4.1,1.6,7.7,6.2,7.7,12.8c0,6.5-2.4,11.5-9.7,11.6c-8.1,0-9.7-6.9-10.2-12.6c-0.8-11.4-1.6-11.9-7.2-11.9
		c-1.5,0-6.8,1.8-6.7,9.6c0,6.2,3.3,10.3,9.2,10.6v2.5c-7.6-0.3-11.4-5-11.4-13.1c0-6,1.8-12.1,9-12.1L61.6,285.9z M48.4,288.5
		c2.3,2,2,7.5,2.7,12.5c0.7,6,2.8,9.5,8,9.4c4.2,0,7.5-3,7.5-9.1c0-11.6-10-12.9-11.8-12.8H48.4z"/>
	
		<rect id="l" x="21.9" y="325.8" transform="matrix(0.9931 -0.1169 0.1169 0.9931 -37.9235 7.6013)" class="st1" width="47.9" height="2.6"/>
</g>
</svg>
